<?xml version="1.0" ?><!DOCTYPE svg  PUBLIC '-//W3C//DTD SVG 1.1//EN'  'http://www.w3.org/Graphics/SVG/1.1/DTD/svg11.dtd'><svg enable-background="new 0 0 128 128" id="Слой_1" version="1.1" viewBox="0 0 128 128" xml:space="preserve" xmlns="http://www.w3.org/2000/svg" xmlns:xlink="http://www.w3.org/1999/xlink"><path d="M25,124L25,124c-2.2,0-4-1.8-4-4V8c0-2.2,1.8-4,4-4h0c2.2,0,4,1.8,4,4v112C29,122.2,27.2,124,25,124z" fill="#F4EEE6"/><path d="M79,34h10c2.8,0,5,2.2,5,5v26.7c0,2.8-2.2,5-5,5H49c-2.8,0-5-2.2-5-5v-15" fill="#F37865"/><path d="M79,34L44,50.7v15c0,2.8,2.2,5,5,5h6l21.1-14.2c4.5-3,8.9-5.5,8.9-10.8V34H79z" opacity="0.1"/><path d="M44,50.7h30L47.7,68.3c-1.6,1-3.7-0.1-3.7-2.1V50.7z" fill="#C05B52"/><polygon opacity="0.1" points="44,56.7 65.1,56.7 74,50.7 44,50.7 "/><path d="M29,14h45c2.8,0,5,2.2,5,5v26.7c0,2.8-2.2,5-5,5H29" fill="#F37865"/><path d="M25,2.5c-3,0-5.5,2.5-5.5,5.5v112c0,3,2.5,5.5,5.5,5.5s5.5-2.5,5.5-5.5V52.2h12v13.5c0,3.6,2.9,6.5,6.5,6.5  h40c3.6,0,6.5-2.9,6.5-6.5V39c0-3.6-2.9-6.5-6.5-6.5h-8.5V19c0-3.6-2.9-6.5-6.5-6.5H30.5V8C30.5,5,28,2.5,25,2.5z M27.5,120  c0,1.4-1.1,2.5-2.5,2.5s-2.5-1.1-2.5-2.5V8c0-1.4,1.1-2.5,2.5-2.5s2.5,1.1,2.5,2.5V120z M45.5,52.2h24.8L46.2,67.7c0,0,0,0-0.1,0.1  c-0.4-0.6-0.7-1.3-0.7-2V52.2z M89,35.5c1.9,0,3.5,1.6,3.5,3.5v26.7c0,1.9-1.6,3.5-3.5,3.5H49.4l27.8-17.9c0,0,0,0,0,0  c1.9-1.1,3.3-3.2,3.3-5.6V35.5H89z M74,15.5c1.9,0,3.5,1.6,3.5,3.5v26.7c0,1.9-1.6,3.5-3.5,3.5H30.5V15.5H74z" fill="#62355C"/></svg>