<?xml version="1.0" ?><svg data-name="Layer 2" id="Layer_2" viewBox="0 0 2000 2000" xmlns="http://www.w3.org/2000/svg"><defs><style>.cls-1{fill:#f4c23f;}.cls-2{fill:#f8881b;}.cls-3{fill:#f08000;}.cls-4{fill:#f4a93f;}.cls-5{fill:#cf6b00;}.cls-6{fill:#fad564;}</style></defs><title/><path class="cls-1" d="M1183,478c-3.5-1.2-7-2.1-10.5-3a195,195,0,0,0-21-4.2l-3.6-.6a31.2,31.2,0,0,1-26.7-26.6c-.1-1.2-.3-2.4-.5-3.7a198.2,198.2,0,0,0-4.2-20.9q-1.4-5.2-3-10.5a111.6,111.6,0,0,0-3.9-10.5c-1.6,3.5-2.8,7-4,10.5s-2.1,7-3,10.5c-1.7,7-3.1,14-4.2,20.9-.2,1.2-.3,2.4-.5,3.5a31.2,31.2,0,0,1-26.7,26.7l-3.6.5q-10.5,1.6-21,4.2c-3.5.9-6.9,1.9-10.4,3.1a90.1,90.1,0,0,0-10.5,4,90.1,90.1,0,0,0,10.5,4c3.5,1.2,6.9,2.2,10.4,3.1q10.5,2.5,21,4.2l3.5.5a31.2,31.2,0,0,1,26.7,26.7c.1,1.1.3,2.3.5,3.5a198.2,198.2,0,0,0,4.2,20.9c.9,3.5,1.9,7,3.1,10.5a90.1,90.1,0,0,0,4,10.5c1.6-3.5,2.8-7,4-10.5s2.1-7,3-10.5c1.8-7,3.2-14,4.3-20.9.1-1.2.3-2.4.5-3.6a31.1,31.1,0,0,1,26.6-26.7l3.5-.6a195,195,0,0,0,21-4.2c3.5-.9,7-1.8,10.5-3a89.3,89.3,0,0,0,10.5-3.9A89.3,89.3,0,0,0,1183,478Z"/><path class="cls-1" d="M453,669.5q-3.2-1.1-6.3-1.8a108.9,108.9,0,0,0-12.4-2.5l-2.2-.3A18.6,18.6,0,0,1,416.3,649l-.3-2.1c-.7-4.2-1.5-8.3-2.5-12.5l-1.8-6.2a54.1,54.1,0,0,0-2.4-6.3c-.9,2.1-1.6,4.2-2.3,6.3s-1.3,4.1-1.8,6.2c-1,4.2-1.9,8.3-2.5,12.5l-.3,2.1a18.5,18.5,0,0,1-15.9,15.8l-2.1.3c-4.2.6-8.3,1.5-12.5,2.5l-6.2,1.8a66.2,66.2,0,0,0-6.2,2.4,46.7,46.7,0,0,0,6.2,2.4c2.1.7,4.1,1.3,6.2,1.8a110.6,110.6,0,0,0,12.5,2.5l2.1.3a18.6,18.6,0,0,1,15.8,15.9l.3,2.1c.6,4.1,1.5,8.3,2.5,12.4l1.8,6.3c.7,2,1.5,4.1,2.4,6.2a60.5,60.5,0,0,0,2.4-6.2q1.1-3.2,1.8-6.3a108.9,108.9,0,0,0,2.5-12.4l.3-2.2a18.8,18.8,0,0,1,15.9-15.9,7.6,7.6,0,0,0,2.1-.3,108.9,108.9,0,0,0,12.4-2.5l6.3-1.7a60.5,60.5,0,0,0,6.2-2.4C457.1,670.9,455,670.2,453,669.5Z"/><circle class="cls-1" cx="1434" cy="416.7" r="31.7"/><path class="cls-2" d="M1025.7,1390.3v120.1c0,50.5,119.9,91.4,267.9,91.4s267.9-40.9,267.9-91.4V1390.3Z"/><path class="cls-3" d="M1293.6,1574c-148,0-267.9-40.9-267.9-91.4v27.8c0,50.5,119.9,91.4,267.9,91.4s267.9-40.9,267.9-91.4v-27.8C1561.5,1533.1,1441.6,1574,1293.6,1574Z"/><path class="cls-3" d="M1429.8,1589.1c7.8-1.6,15.4-3.3,22.7-5.1V1390.3h-22.7Z"/><path class="cls-3" d="M1339,1600.5c7.7-.5,15.2-1,22.7-1.7V1390.3H1339Z"/><path class="cls-3" d="M1520.6,1559a130,130,0,0,0,22.7-15.4V1390.3h-22.7Z"/><path class="cls-3" d="M1157.4,1589.1c7.3,1.5,14.9,2.9,22.7,4.1V1390.3h-22.7Z"/><path class="cls-3" d="M1066.6,1559a209.9,209.9,0,0,0,22.7,10.5V1390.3h-22.7Z"/><path class="cls-3" d="M1248.2,1600.5c7.5.4,15,.8,22.7,1V1390.3h-22.7Z"/><ellipse class="cls-4" cx="1293.6" cy="1390.3" rx="267.9" ry="91.4"/><path class="cls-1" d="M1293.6,1448.1c-64.5,0-125.7-8.1-172.2-22.8s-60.7-30.9-62.1-35c1.4-4,14.9-19.9,62.1-34.9s107.7-22.9,172.2-22.9,125.6,8.2,172.1,22.9,60.8,30.9,62.1,34.9c-1.3,4.1-14.8,20-62.1,35S1358.1,1448.1,1293.6,1448.1Z"/><path class="cls-2" d="M1025.7,1272.5v120.1c0,50.4,119.9,91.4,267.9,91.4s267.9-41,267.9-91.4V1272.5Z"/><path class="cls-3" d="M1293.6,1456.2c-148,0-267.9-40.9-267.9-91.4v27.8c0,50.4,119.9,91.4,267.9,91.4s267.9-41,267.9-91.4v-27.8C1561.5,1415.3,1441.6,1456.2,1293.6,1456.2Z"/><path class="cls-3" d="M1429.8,1471.3c7.8-1.6,15.4-3.3,22.7-5.1V1272.5h-22.7Z"/><path class="cls-3" d="M1339,1482.7c7.7-.5,15.2-1,22.7-1.7V1272.5H1339Z"/><path class="cls-3" d="M1520.6,1441.1a124.5,124.5,0,0,0,22.7-15.3V1272.5h-22.7Z"/><path class="cls-3" d="M1157.4,1471.3c7.3,1.5,14.9,2.8,22.7,4.1V1272.5h-22.7Z"/><path class="cls-3" d="M1066.6,1441.1a209.7,209.7,0,0,0,22.7,10.6V1272.5h-22.7Z"/><path class="cls-3" d="M1248.2,1482.7c7.5.4,15,.7,22.7.9V1272.5h-22.7Z"/><ellipse class="cls-4" cx="1293.6" cy="1272.5" rx="267.9" ry="91.4"/><path class="cls-1" d="M1293.6,1330.3c-64.5,0-125.7-8.1-172.2-22.8s-60.7-30.9-62.1-35c1.4-4,14.9-20,62.1-34.9s107.7-22.9,172.2-22.9,125.6,8.1,172.1,22.9,60.8,30.9,62.1,34.9c-1.3,4.1-14.8,20-62.1,35S1358.1,1330.3,1293.6,1330.3Z"/><path class="cls-2" d="M1025.7,1154.7v120c0,50.5,119.9,91.4,267.9,91.4s267.9-40.9,267.9-91.4v-120Z"/><path class="cls-3" d="M1293.6,1338.4c-148,0-267.9-41-267.9-91.4v27.7c0,50.5,119.9,91.4,267.9,91.4s267.9-40.9,267.9-91.4V1247C1561.5,1297.4,1441.6,1338.4,1293.6,1338.4Z"/><path class="cls-3" d="M1429.8,1353.4c7.8-1.5,15.4-3.2,22.7-5.1V1154.7h-22.7Z"/><path class="cls-3" d="M1339,1364.8c7.7-.4,15.2-1,22.7-1.6V1154.7H1339Z"/><path class="cls-3" d="M1520.6,1323.3a124.7,124.7,0,0,0,22.7-15.4V1154.7h-22.7Z"/><path class="cls-3" d="M1157.4,1353.5c7.3,1.4,14.9,2.8,22.7,4V1154.7h-22.7Z"/><path class="cls-3" d="M1066.6,1323.3a209.9,209.9,0,0,0,22.7,10.5V1154.7h-22.7Z"/><path class="cls-3" d="M1248.2,1364.8c7.5.5,15,.8,22.7,1V1154.7h-22.7Z"/><ellipse class="cls-4" cx="1293.6" cy="1154.7" rx="267.9" ry="91.4"/><path class="cls-1" d="M1293.6,1212.5c-64.5,0-125.7-8.1-172.2-22.9s-60.7-30.9-62.1-34.9c1.4-4.1,14.9-20,62.1-35s107.7-22.8,172.2-22.8,125.6,8.1,172.1,22.8,60.8,30.9,62.1,35c-1.3,4-14.8,19.9-62.1,34.9S1358.1,1212.5,1293.6,1212.5Z"/><path class="cls-2" d="M1025.7,1036.8v120.1c0,50.5,119.9,91.4,267.9,91.4s267.9-40.9,267.9-91.4V1036.8Z"/><path class="cls-3" d="M1293.6,1220.5c-148,0-267.9-40.9-267.9-91.4v27.8c0,50.5,119.9,91.4,267.9,91.4s267.9-40.9,267.9-91.4v-27.8C1561.5,1179.6,1441.6,1220.5,1293.6,1220.5Z"/><path class="cls-3" d="M1429.8,1235.6c7.8-1.6,15.4-3.3,22.7-5.1V1036.8h-22.7Z"/><path class="cls-3" d="M1339,1247c7.7-.5,15.2-1,22.7-1.7V1036.8H1339Z"/><path class="cls-3" d="M1520.6,1205.4a124.5,124.5,0,0,0,22.7-15.3V1036.8h-22.7Z"/><path class="cls-3" d="M1157.4,1235.6c7.3,1.5,14.9,2.9,22.7,4.1V1036.8h-22.7Z"/><path class="cls-3" d="M1066.6,1205.5a209.9,209.9,0,0,0,22.7,10.5V1036.8h-22.7Z"/><path class="cls-3" d="M1248.2,1247l22.7,1V1036.8h-22.7Z"/><ellipse class="cls-4" cx="1293.6" cy="1036.8" rx="267.9" ry="91.4"/><path class="cls-1" d="M1293.6,1094.6c-64.5,0-125.7-8.1-172.2-22.8s-60.7-30.9-62.1-35c1.4-4,14.9-19.9,62.1-34.9S1229.1,979,1293.6,979s125.6,8.1,172.1,22.9,60.8,30.9,62.1,34.9c-1.3,4.1-14.8,20-62.1,35S1358.1,1094.6,1293.6,1094.6Z"/><path class="cls-2" d="M1025.7,919v120.1c0,50.4,119.9,91.4,267.9,91.4s267.9-41,267.9-91.4V919Z"/><path class="cls-3" d="M1293.6,1102.7c-148,0-267.9-40.9-267.9-91.4v27.8c0,50.4,119.9,91.4,267.9,91.4s267.9-41,267.9-91.4v-27.8C1561.5,1061.8,1441.6,1102.7,1293.6,1102.7Z"/><path class="cls-3" d="M1429.8,1117.8c7.8-1.6,15.4-3.3,22.7-5.1V919h-22.7Z"/><path class="cls-3" d="M1339,1129.1c7.7-.4,15.2-1,22.7-1.6V919H1339Z"/><path class="cls-3" d="M1520.6,1087.6a124.5,124.5,0,0,0,22.7-15.3V919h-22.7Z"/><path class="cls-3" d="M1157.4,1117.8c7.3,1.5,14.9,2.8,22.7,4.1V919h-22.7Z"/><path class="cls-3" d="M1066.6,1087.6a209.7,209.7,0,0,0,22.7,10.6V919h-22.7Z"/><path class="cls-3" d="M1248.2,1129.2c7.5.4,15,.7,22.7.9V919h-22.7Z"/><ellipse class="cls-4" cx="1293.6" cy="919" rx="267.9" ry="91.4"/><path class="cls-1" d="M1293.6,976.8c-64.5,0-125.7-8.1-172.2-22.9s-60.7-30.9-62.1-34.9c1.4-4.1,14.9-20,62.1-35s107.7-22.8,172.2-22.8,125.6,8.1,172.1,22.8,60.8,30.9,62.1,35c-1.3,4-14.8,20-62.1,34.9S1358.1,976.8,1293.6,976.8Z"/><path class="cls-2" d="M1025.7,801.2v120c0,50.5,119.9,91.4,267.9,91.4s267.9-40.9,267.9-91.4v-120Z"/><path class="cls-3" d="M1293.6,984.9c-148,0-267.9-41-267.9-91.5v27.8c0,50.5,119.9,91.4,267.9,91.4s267.9-40.9,267.9-91.4V893.4C1561.5,943.9,1441.6,984.9,1293.6,984.9Z"/><path class="cls-3" d="M1429.8,999.9c7.8-1.5,15.4-3.2,22.7-5.1V801.2h-22.7Z"/><path class="cls-3" d="M1339,1011.3c7.7-.4,15.2-1,22.7-1.7V801.2H1339Z"/><path class="cls-3" d="M1520.6,969.8a130,130,0,0,0,22.7-15.4V801.2h-22.7Z"/><path class="cls-3" d="M1157.4,999.9c7.3,1.5,14.9,2.9,22.7,4.1V801.2h-22.7Z"/><path class="cls-3" d="M1066.6,969.8a209.9,209.9,0,0,0,22.7,10.5V801.2h-22.7Z"/><path class="cls-3" d="M1248.2,1011.3c7.5.4,15,.8,22.7,1V801.2h-22.7Z"/><ellipse class="cls-4" cx="1293.6" cy="801.2" rx="267.9" ry="91.4"/><path class="cls-1" d="M1293.6,859c-64.5,0-125.7-8.2-172.2-22.9s-60.7-30.9-62.1-34.9c1.4-4.1,14.9-20,62.1-35s107.7-22.8,172.2-22.8,125.6,8.1,172.1,22.8,60.8,30.9,62.1,35c-1.3,4-14.8,19.9-62.1,34.9S1358.1,859,1293.6,859Z"/><path class="cls-2" d="M1025.7,683.3V803.4c0,50.5,119.9,91.4,267.9,91.4s267.9-40.9,267.9-91.4V683.3Z"/><path class="cls-3" d="M1293.6,867c-148,0-267.9-40.9-267.9-91.4v27.8c0,50.5,119.9,91.4,267.9,91.4s267.9-40.9,267.9-91.4V775.6C1561.5,826.1,1441.6,867,1293.6,867Z"/><path class="cls-3" d="M1429.8,882.1c7.8-1.6,15.4-3.3,22.7-5.1V683.3h-22.7Z"/><path class="cls-3" d="M1339,893.5c7.7-.5,15.2-1,22.7-1.7V683.3H1339Z"/><path class="cls-3" d="M1520.6,851.9a124.5,124.5,0,0,0,22.7-15.3V683.3h-22.7Z"/><path class="cls-3" d="M1157.4,882.1c7.3,1.5,14.9,2.9,22.7,4.1V683.3h-22.7Z"/><path class="cls-3" d="M1066.6,852a209.9,209.9,0,0,0,22.7,10.5V683.3h-22.7Z"/><path class="cls-3" d="M1248.2,893.5l22.7,1V683.3h-22.7Z"/><ellipse class="cls-4" cx="1293.6" cy="683.3" rx="267.9" ry="91.4"/><path class="cls-1" d="M1293.6,741.1c-64.5,0-125.7-8.1-172.2-22.8s-60.7-30.9-62.1-35c1.4-4,14.9-19.9,62.1-34.9s107.7-22.9,172.2-22.9,125.6,8.1,172.1,22.9,60.8,30.9,62.1,34.9c-1.3,4.1-14.8,20-62.1,35S1358.1,741.1,1293.6,741.1Z"/><path class="cls-2" d="M461.3,1390.3v120.1c0,50.5,119.9,91.4,267.9,91.4s267.9-40.9,267.9-91.4V1390.3Z"/><path class="cls-3" d="M729.2,1574c-148,0-267.9-40.9-267.9-91.4v27.8c0,50.5,119.9,91.4,267.9,91.4s267.9-40.9,267.9-91.4v-27.8C997.1,1533.1,877.2,1574,729.2,1574Z"/><path class="cls-3" d="M865.4,1589.1c7.8-1.6,15.4-3.3,22.7-5.1V1390.3H865.4Z"/><path class="cls-3" d="M774.6,1600.5c7.7-.5,15.2-1,22.7-1.7V1390.3H774.6Z"/><path class="cls-3" d="M956.2,1559a130,130,0,0,0,22.7-15.4V1390.3H956.2Z"/><path class="cls-3" d="M593,1589.1c7.4,1.5,14.9,2.9,22.7,4.1V1390.3H593Z"/><path class="cls-3" d="M502.2,1559a209.9,209.9,0,0,0,22.7,10.5V1390.3H502.2Z"/><path class="cls-3" d="M683.8,1600.5c7.5.4,15,.8,22.7,1V1390.3H683.8Z"/><ellipse class="cls-4" cx="729.2" cy="1390.3" rx="267.9" ry="91.4"/><path class="cls-1" d="M729.2,1448.1c-64.5,0-125.7-8.1-172.2-22.8s-60.7-30.9-62.1-35c1.4-4,14.9-19.9,62.1-34.9s107.7-22.9,172.2-22.9,125.7,8.2,172.2,22.9,60.7,30.9,62.1,34.9c-1.4,4.1-14.9,20-62.1,35S793.7,1448.1,729.2,1448.1Z"/><path class="cls-2" d="M461.3,1272.5v120.1c0,50.4,119.9,91.4,267.9,91.4s267.9-41,267.9-91.4V1272.5Z"/><path class="cls-3" d="M729.2,1456.2c-148,0-267.9-40.9-267.9-91.4v27.8c0,50.4,119.9,91.4,267.9,91.4s267.9-41,267.9-91.4v-27.8C997.1,1415.3,877.2,1456.2,729.2,1456.2Z"/><path class="cls-3" d="M865.4,1471.3c7.8-1.6,15.4-3.3,22.7-5.1V1272.5H865.4Z"/><path class="cls-3" d="M774.6,1482.7c7.7-.5,15.2-1,22.7-1.7V1272.5H774.6Z"/><path class="cls-3" d="M956.2,1441.1a124.5,124.5,0,0,0,22.7-15.3V1272.5H956.2Z"/><path class="cls-3" d="M593,1471.3c7.4,1.5,14.9,2.8,22.7,4.1V1272.5H593Z"/><path class="cls-3" d="M502.2,1441.1a209.7,209.7,0,0,0,22.7,10.6V1272.5H502.2Z"/><path class="cls-3" d="M683.8,1482.7c7.5.4,15,.7,22.7.9V1272.5H683.8Z"/><ellipse class="cls-4" cx="729.2" cy="1272.5" rx="267.9" ry="91.4"/><path class="cls-1" d="M729.2,1330.3c-64.5,0-125.7-8.1-172.2-22.8s-60.7-30.9-62.1-35c1.4-4,14.9-20,62.1-34.9s107.7-22.9,172.2-22.9,125.7,8.1,172.2,22.9,60.7,30.9,62.1,34.9c-1.4,4.1-14.9,20-62.1,35S793.7,1330.3,729.2,1330.3Z"/><path class="cls-2" d="M461.3,1154.7v120c0,50.5,119.9,91.4,267.9,91.4s267.9-40.9,267.9-91.4v-120Z"/><path class="cls-3" d="M729.2,1338.4c-148,0-267.9-41-267.9-91.4v27.7c0,50.5,119.9,91.4,267.9,91.4s267.9-40.9,267.9-91.4V1247C997.1,1297.4,877.2,1338.4,729.2,1338.4Z"/><path class="cls-3" d="M865.4,1353.4c7.8-1.5,15.4-3.2,22.7-5.1V1154.7H865.4Z"/><path class="cls-3" d="M774.6,1364.8c7.7-.4,15.2-1,22.7-1.6V1154.7H774.6Z"/><path class="cls-3" d="M956.2,1323.3a124.7,124.7,0,0,0,22.7-15.4V1154.7H956.2Z"/><path class="cls-3" d="M593,1353.5c7.4,1.4,14.9,2.8,22.7,4V1154.7H593Z"/><path class="cls-3" d="M502.2,1323.3a209.9,209.9,0,0,0,22.7,10.5V1154.7H502.2Z"/><path class="cls-3" d="M683.8,1364.8c7.5.5,15,.8,22.7,1V1154.7H683.8Z"/><ellipse class="cls-4" cx="729.2" cy="1154.7" rx="267.9" ry="91.4"/><path class="cls-1" d="M729.2,1212.5c-64.5,0-125.7-8.1-172.2-22.9s-60.7-30.9-62.1-34.9c1.4-4.1,14.9-20,62.1-35s107.7-22.8,172.2-22.8,125.7,8.1,172.2,22.8,60.7,30.9,62.1,35c-1.4,4-14.9,19.9-62.1,34.9S793.7,1212.5,729.2,1212.5Z"/><path class="cls-2" d="M461.3,1036.8v120.1c0,50.5,119.9,91.4,267.9,91.4s267.9-40.9,267.9-91.4V1036.8Z"/><path class="cls-3" d="M729.2,1220.5c-148,0-267.9-40.9-267.9-91.4v27.8c0,50.5,119.9,91.4,267.9,91.4s267.9-40.9,267.9-91.4v-27.8C997.1,1179.6,877.2,1220.5,729.2,1220.5Z"/><path class="cls-3" d="M865.4,1235.6c7.8-1.6,15.4-3.3,22.7-5.1V1036.8H865.4Z"/><path class="cls-3" d="M774.6,1247c7.7-.5,15.2-1,22.7-1.7V1036.8H774.6Z"/><path class="cls-3" d="M956.2,1205.4a124.5,124.5,0,0,0,22.7-15.3V1036.8H956.2Z"/><path class="cls-3" d="M593,1235.6c7.4,1.5,14.9,2.9,22.7,4.1V1036.8H593Z"/><path class="cls-3" d="M502.2,1205.5a209.9,209.9,0,0,0,22.7,10.5V1036.8H502.2Z"/><path class="cls-3" d="M683.8,1247l22.7,1V1036.8H683.8Z"/><ellipse class="cls-4" cx="729.2" cy="1036.8" rx="267.9" ry="91.4"/><path class="cls-1" d="M729.2,1094.6c-64.5,0-125.7-8.1-172.2-22.8s-60.7-30.9-62.1-35c1.4-4,14.9-19.9,62.1-34.9S664.7,979,729.2,979s125.7,8.1,172.2,22.9,60.7,30.9,62.1,34.9c-1.4,4.1-14.9,20-62.1,35S793.7,1094.6,729.2,1094.6Z"/><path class="cls-2" d="M461.3,919v120.1c0,50.4,119.9,91.4,267.9,91.4s267.9-41,267.9-91.4V919Z"/><path class="cls-3" d="M729.2,1102.7c-148,0-267.9-40.9-267.9-91.4v27.8c0,50.4,119.9,91.4,267.9,91.4s267.9-41,267.9-91.4v-27.8C997.1,1061.8,877.2,1102.7,729.2,1102.7Z"/><path class="cls-3" d="M865.4,1117.8c7.8-1.6,15.4-3.3,22.7-5.1V919H865.4Z"/><path class="cls-3" d="M774.6,1129.1c7.7-.4,15.2-1,22.7-1.6V919H774.6Z"/><path class="cls-3" d="M956.2,1087.6a124.5,124.5,0,0,0,22.7-15.3V919H956.2Z"/><path class="cls-3" d="M593,1117.8c7.4,1.5,14.9,2.8,22.7,4.1V919H593Z"/><path class="cls-3" d="M502.2,1087.6a209.7,209.7,0,0,0,22.7,10.6V919H502.2Z"/><path class="cls-3" d="M683.8,1129.2c7.5.4,15,.7,22.7.9V919H683.8Z"/><ellipse class="cls-4" cx="729.2" cy="919" rx="267.9" ry="91.4"/><path class="cls-1" d="M729.2,976.8c-64.5,0-125.7-8.1-172.2-22.9S496.3,923,494.9,919c1.4-4.1,14.9-20,62.1-35s107.7-22.8,172.2-22.8,125.7,8.1,172.2,22.8,60.7,30.9,62.1,35c-1.4,4-14.9,20-62.1,34.9S793.7,976.8,729.2,976.8Z"/><path class="cls-2" d="M461.3,801.2v120c0,50.5,119.9,91.4,267.9,91.4s267.9-40.9,267.9-91.4v-120Z"/><path class="cls-3" d="M729.2,984.9c-148,0-267.9-41-267.9-91.5v27.8c0,50.5,119.9,91.4,267.9,91.4s267.9-40.9,267.9-91.4V893.4C997.1,943.9,877.2,984.9,729.2,984.9Z"/><path class="cls-3" d="M865.4,999.9c7.8-1.5,15.4-3.2,22.7-5.1V801.2H865.4Z"/><path class="cls-3" d="M774.6,1011.3c7.7-.4,15.2-1,22.7-1.7V801.2H774.6Z"/><path class="cls-3" d="M956.2,969.8a130,130,0,0,0,22.7-15.4V801.2H956.2Z"/><path class="cls-3" d="M593,999.9c7.4,1.5,14.9,2.9,22.7,4.1V801.2H593Z"/><path class="cls-3" d="M502.2,969.8a209.9,209.9,0,0,0,22.7,10.5V801.2H502.2Z"/><path class="cls-3" d="M683.8,1011.3c7.5.4,15,.8,22.7,1V801.2H683.8Z"/><ellipse class="cls-4" cx="729.2" cy="801.2" rx="267.9" ry="91.4"/><path class="cls-1" d="M729.2,859c-64.5,0-125.7-8.2-172.2-22.9s-60.7-30.9-62.1-34.9c1.4-4.1,14.9-20,62.1-35s107.7-22.8,172.2-22.8,125.7,8.1,172.2,22.8,60.7,30.9,62.1,35c-1.4,4-14.9,19.9-62.1,34.9S793.7,859,729.2,859Z"/><path class="cls-5" d="M1025.7,1088.1v186.6h0v235.7c0,20.2,19.2,38.9,51.7,54h0c48.7,22.7,127.4,37.4,216.2,37.4,8.6,0,17.1-.1,25.6-.4a360.7,360.7,0,0,0,33.8-153C1353,1260.2,1209.3,1105.5,1025.7,1088.1Z"/><path class="cls-5" d="M774.6,1600.5h0l5.4-.3h.6l5-.3h1l4.8-.4h1.1a625.4,625.4,0,0,0,78.7-11.3h0l5.7-1.2h.1l5.5-1.2a.1.1,0,0,0,.1-.1c32.8-7.8,60.3-18.1,80-30h0l3-1.9h.1l2.8-1.9h.2l2.6-1.8h.2l2.4-1.9h.2l2.4-1.9h.1l2.3-1.9h0c11.7-10.3,18.2-21.5,18.2-33.2V1274.7h0V1086.5H991c-200,0-362,162.1-362,362a362.1,362.1,0,0,0,32.6,150.5c21.6,1.9,44.3,2.9,67.6,2.9C744.7,1601.8,759.9,1601.4,774.6,1600.5Z"/><circle class="cls-2" cx="991" cy="1448.4" r="303.6"/><circle class="cls-3" cx="991" cy="1448.4" r="268.3"/><circle class="cls-1" cx="991" cy="1448.4" r="238"/><path class="cls-6" d="M1206.9,1398.7c5.6,0,11.2-.3,16.7-.7-22.2-103.2-111.4-181.5-219.8-187.3C1011.8,1315.8,1099.7,1398.7,1206.9,1398.7Z"/><path class="cls-4" d="M981.4,1671.4a35.1,35.1,0,0,1-35.1-35.1V1594H881.4a35.1,35.1,0,1,1,0-70.1h146.8a18.1,18.1,0,1,0,0-36.2H934.5a88.2,88.2,0,1,1,0-176.3h11.8v-28a35.1,35.1,0,0,1,70.1,0v28h65a35.1,35.1,0,1,1,0,70.1H934.5a18.1,18.1,0,1,0,0,36.1h93.7a88.2,88.2,0,0,1,0,176.4h-11.8v42.3A35.1,35.1,0,0,1,981.4,1671.4Z"/><path class="cls-5" d="M1034.7,1412.6H941a24.6,24.6,0,1,1,0-49.1h146.9a28.6,28.6,0,1,0,0-57.1h-71.5V1272a28.5,28.5,0,1,0-57,0v34.4H941a81.7,81.7,0,1,0,0,163.3h93.7a24.6,24.6,0,1,1,0,49.2H887.9a28.6,28.6,0,1,0,0,57.1h71.5v48.9a28.5,28.5,0,0,0,57,0V1576h18.3a81.7,81.7,0,0,0,0-163.4Z"/><path class="cls-1" d="M1566.7,962.1c-3.5-1.2-6.9-2.1-10.4-3a195,195,0,0,0-21-4.2l-3.7-.6a31.1,31.1,0,0,1-26.6-26.6c-.2-1.2-.3-2.4-.5-3.6q-1.6-10.5-4.2-21-1.3-5.2-3-10.5c-1.2-3.5-2.4-7-4-10.5a111.6,111.6,0,0,0-3.9,10.5q-1.7,5.3-3,10.5a195,195,0,0,0-4.2,21c-.2,1.1-.4,2.3-.5,3.5a31.2,31.2,0,0,1-26.7,26.6l-3.6.5c-7,1.1-14,2.5-21,4.3-3.5.9-7,1.8-10.5,3a90.1,90.1,0,0,0-10.5,4,90.1,90.1,0,0,0,10.5,4c3.5,1.2,7,2.2,10.5,3.1,7,1.8,14,3.1,21,4.2l3.5.5a31.1,31.1,0,0,1,26.6,26.7c.2,1.1.4,2.3.5,3.5,1.1,7,2.5,13.9,4.3,20.9q1.4,5.3,3,10.5c1.2,3.5,2.4,7,4,10.5a90.1,90.1,0,0,0,4-10.5c1.2-3.5,2.2-7,3.1-10.5a193.3,193.3,0,0,0,4.2-20.9c.2-1.2.4-2.4.5-3.6a31.2,31.2,0,0,1,26.7-26.7l3.5-.5q10.5-1.7,21-4.2c3.5-.9,6.9-1.9,10.4-3.1a89.3,89.3,0,0,0,10.5-3.9A89.3,89.3,0,0,0,1566.7,962.1Z"/><path class="cls-1" d="M587,1014.5c-3.5-1.2-7-2.2-10.5-3.1q-10.5-2.5-21-4.2l-3.6-.5a31.2,31.2,0,0,1-26.7-26.6c-.1-1.2-.3-2.5-.5-3.7-1.1-7-2.5-13.9-4.2-20.9q-1.3-5.2-3-10.5c-1.2-3.5-2.4-7-4-10.5a111.6,111.6,0,0,0-3.9,10.5q-1.7,5.3-3,10.5c-1.8,7-3.1,13.9-4.2,20.9-.2,1.2-.4,2.4-.5,3.5a31.2,31.2,0,0,1-26.7,26.7l-3.6.5c-7,1.1-14,2.4-21,4.2-3.5.9-7,1.9-10.5,3.1a90.1,90.1,0,0,0-10.5,4,90.1,90.1,0,0,0,10.5,4c3.5,1.2,7,2.1,10.5,3,7,1.8,14,3.2,21,4.3l3.5.5a31.1,31.1,0,0,1,26.7,26.6c.1,1.2.3,2.4.5,3.5a195,195,0,0,0,4.2,21q1.3,5.3,3,10.5c1.2,3.5,2.4,7,4,10.5a75.1,75.1,0,0,0,4-10.5c1.2-3.5,2.2-7,3.1-10.5a195,195,0,0,0,4.2-21c.2-1.2.4-2.4.5-3.6A31.3,31.3,0,0,1,552,1030l3.5-.5a195,195,0,0,0,21-4.2c3.5-.9,7-1.8,10.5-3a81.8,81.8,0,0,0,10.4-3.9A81.8,81.8,0,0,0,587,1014.5Z"/></svg>