<?xml version="1.0" encoding="utf-8"?>
<!-- Generator: Adobe Illustrator 17.1.0, SVG Export Plug-In . SVG Version: 6.00 Build 0)  -->
<!DOCTYPE svg PUBLIC "-//W3C//DTD SVG 1.1//EN" "http://www.w3.org/Graphics/SVG/1.1/DTD/svg11.dtd">
<svg version="1.1" id="percentage" xmlns="http://www.w3.org/2000/svg" xmlns:xlink="http://www.w3.org/1999/xlink" x="0px" y="0px"
	 viewBox="0 0 99.997 99.9942" enable-background="new 0 0 99.997 99.9942" xml:space="preserve">
<circle id="percentage-label" fill="#324058" cx="49.999" cy="49.9971" r="49.9971"/>
<g id="percentage-precentage">
	<g>
		<path fill="#FFFFFF" d="M36.3086,48.3384c-4.4385,0-8.0489-3.6103-8.0489-8.0488c0-4.4395,3.6104-8.0513,8.0489-8.0513
			c4.4399,0,8.0508,3.6118,8.0508,8.0513C44.3594,44.7281,40.7485,48.3384,36.3086,48.3384L36.3086,48.3384z M36.3086,34.1411
			c-3.3882,0-6.146,2.7579-6.146,6.1485c0,3.3882,2.7578,6.146,6.146,6.146c3.3891,0,6.1479-2.7578,6.1479-6.146
			C42.4565,36.899,39.6977,34.1411,36.3086,34.1411L36.3086,34.1411z"/>
	</g>
	<g>
		<path fill="#FFFFFF" d="M62.8916,72.4424c-4.4405,0-8.0508-3.6084-8.0508-8.0488c0-4.4385,3.6103-8.0508,8.0508-8.0508
			c4.4385,0,8.0488,3.6123,8.0488,8.0508C70.9404,68.834,67.3301,72.4424,62.8916,72.4424L62.8916,72.4424z M62.8916,58.2461
			c-3.3897,0-6.1485,2.7588-6.1485,6.1475c0,3.3877,2.7588,6.1465,6.1485,6.1465c3.3887,0,6.1455-2.7588,6.1455-6.1465
			C69.0371,61.0049,66.2803,58.2461,62.8916,58.2461L62.8916,58.2461z"/>
	</g>
	<g>
		<g>
			<path fill="#43C7D2" d="M33.1723,71.5625c-0.2241,0-0.4492-0.0781-0.6303-0.2363c-0.3941-0.3496-0.4307-0.9512-0.083-1.3447
				l36.2607-40.9737c0.3486-0.3935,0.9492-0.4316,1.3428-0.083c0.3935,0.3477,0.4306,0.9507,0.083,1.3433L33.8847,71.2422
				C33.6982,71.4541,33.4355,71.5625,33.1723,71.5625L33.1723,71.5625z"/>
		</g>
		<g>
			<path fill="#43C7D2" d="M70.791,39.104c-0.5264,0-0.9522-0.4257-0.9522-0.9516v-8.6988h-8.7011
				c-0.5235,0-0.9502-0.4267-0.9502-0.9516c0-0.5249,0.4267-0.9512,0.9502-0.9512h9.6533c0.5234,0,0.9502,0.4263,0.9502,0.9512
				v9.6504C71.7412,38.6783,71.3144,39.104,70.791,39.104L70.791,39.104z"/>
		</g>
	</g>
</g>
</svg>
