<svg width="226" height="226" fill="none" xmlns="http://www.w3.org/2000/svg"><path d="M187 122.002c0 10.99-2.4 21.43-6.71 30.81-11.68 25.49-37.42 43.19-67.29 43.19-29.87 0-55.61-17.7-67.29-43.19-4.31-9.38-6.71-19.82-6.71-30.81 0-40.87 33.13-74 74-74s74 33.13 74 74z" fill="#F0F1F2"/><clipPath id="a" clipPathUnits="userSpaceOnUse"><path d="M187.11 65.5c0 10.99-2.4 77.93-6.71 87.31C168.72 178.3 142.98 196 113.11 196c-29.87 0-55.61-17.7-67.29-43.19-4.31-9.38-6.71-76.32-6.71-87.31 0-40.87 33.13-40.5 74-40.5s74-.37 74 40.5z" fill="#fff"/></clipPath><g clip-path="url(#a)"><g filter="url(#b)"><path d="M57.003 44.623c0-.897.726-1.623 1.623-1.623H167.38c.897 0 1.623.726 1.623 1.623v150.203c0 .897-.726 1.623-1.623 1.623H58.626a1.622 1.622 0 0 1-1.623-1.623V44.623z" fill="#F0F1F2"/></g><path d="M57 131h112v63.395c0 .887-.726 1.605-1.623 1.605H58.623A1.613 1.613 0 0 1 57 194.395V131z" fill="#fff"/><path d="M116.003 142h-46a2 2 0 1 0 0 4h46a2 2 0 1 0 0-4z" fill="#D2D5D9"/><path d="M103.003 157h-30a5 5 0 0 0 0 10h30a5 5 0 0 0 0-10z" fill="#108060"/></g><path d="M123 43h44a2 2 0 0 1 2 2v86h-46V43z" fill="#E8E9EB"/><path d="M123 131h-20.7c-14.9-10.5-15-18.7-11.3-29.6v-.1c3.8-11.1 11.3-24.8 11.3-46.3H123c0 1.9.1 3.7.2 5.4 2.3 38.7 28.5 50.5-.2 70.6z" fill="#E9AF58"/><path d="M123 131h-20.7c-14.9-10.5-15-18.7-11.3-29.6v-.1c5-13.5 17.6-29.4 32-46.3 0 1.9.1 3.7.2 5.4 2.3 38.7 28.5 50.5-.2 70.6z" fill="#E0A143"/><path d="M123 131h-20.7c22.8-10.8 21.9-38 20.9-70.6 2.3 38.7 28.5 50.5-.2 70.6z" fill="#D9942D"/><path fill-rule="evenodd" clip-rule="evenodd" d="M129.762 69.285a2.457 2.457 0 0 1-.721-1.74V57.502a2.46 2.46 0 0 1 2.46-2.46h10.045c.652 0 1.278.26 1.739.72l12.416 12.417c.96.96.96 2.517 0 3.478L145.656 81.7a2.46 2.46 0 0 1-3.478 0l-12.416-12.416zm6.973-6.55a1.814 1.814 0 1 0-2.565-2.567 1.814 1.814 0 0 0 2.565 2.567z" fill="#108060"/><defs><filter id="b" x="47.003" y="35" width="132" height="173.449" filterUnits="userSpaceOnUse" color-interpolation-filters="sRGB"><feFlood flood-opacity="0" result="BackgroundImageFix"/><feColorMatrix in="SourceAlpha" values="0 0 0 0 0 0 0 0 0 0 0 0 0 0 0 0 0 0 127 0"/><feOffset dy="2"/><feGaussianBlur stdDeviation="5"/><feColorMatrix values="0 0 0 0 0 0 0 0 0 0 0 0 0 0 0 0 0 0 0.3 0"/><feBlend in2="BackgroundImageFix" result="effect1_dropShadow"/><feBlend in="SourceGraphic" in2="effect1_dropShadow" result="shape"/></filter></defs></svg>