<svg xmlns="http://www.w3.org/2000/svg" xmlns:xlink="http://www.w3.org/1999/xlink" viewBox="0 0 150 150"><defs><style>.cls-1{fill:#f7d8ba;}.cls-2,.cls-7,.cls-9{fill:none;}.cls-3{clip-path:url(#clip-path);}.cls-4{fill:#d46919;}.cls-5{fill:#fff;}.cls-6{fill:#e0a78f;}.cls-7{stroke:#b9635e;}.cls-7,.cls-9{stroke-linecap:round;stroke-linejoin:round;stroke-width:0.66px;}.cls-8{fill:#1e0b02;}.cls-9{stroke:#000;}.cls-10{clip-path:url(#clip-path-2);}.cls-11{fill:#ef758d;stroke:#ef758d;stroke-miterlimit:10;}</style><clipPath id="clip-path"><circle class="cls-1" cx="75" cy="75" r="75" transform="translate(-14.68 131.63) rotate(-77.27)"/></clipPath><clipPath id="clip-path-2"><path class="cls-2" d="M130.92,120c-2.34-6.29-9.31-14.46-22.64-17.11l-.45.33C91.26,115.25,69,114.7,52.24,102.84l.83-.28c-14.38,2.28-21.8,10.87-24.23,17.41L23.22,145.6H136.54Z"/></clipPath></defs><g id="OBJECTS"><circle class="cls-1" cx="75" cy="75" r="75" transform="translate(-14.68 131.63) rotate(-77.27)"/><g class="cls-3"><path class="cls-4" d="M52.61,37.06S49.22,56.38,26,70.41c-24.79,15-10.66,62.5,32.75,63.55,47.16,1.13,71.12-57.78,43.87-105.9Z"/><path class="cls-5" d="M130.92,119.78c-2.43-6.47-9.85-15-24.24-17.23l-26.8-5.26-26.81,5.26c-14.38,2.25-21.8,10.76-24.23,17.23l-5.62,25.36h24.6l1.79,2.05,29.85,5.88,30.68-7.93h26.4Z"/><path class="cls-6" d="M52.24,102.82l29.07-5.89,27.12,5.81-.6.44C91.26,115.1,69,114.56,52.24,102.82Z"/><path class="cls-6" d="M65.38,59.82a7.85,7.85,0,1,1-8.14-7.54A7.84,7.84,0,0,1,65.38,59.82Z"/><path class="cls-7" d="M53.07,59.07s3.11-1.56,6.14,3.83"/><path class="cls-6" d="M94,59.75a7.85,7.85,0,1,0,7.76-7.93A7.83,7.83,0,0,0,94,59.75Z"/><path class="cls-7" d="M106.28,58.39s-3.17-1.4-5.94,4.13"/><ellipse class="cls-4" cx="79.29" cy="40.81" rx="26.99" ry="25.19" transform="translate(-0.42 0.82) rotate(-0.59)"/><path class="cls-6" d="M87.44,75.48s-3.36,3.15-6.45,4-6.12-1.52-6.16-1.55l-3.65-2.67L70,101l.4.43c5.32,5.59,12.88,5.59,18.13,0l.76-.82Z"/><path class="cls-8" d="M68.7,71.82s4.51,15,12.28,14.82c6.38-.19,8-14.28,8-14.28Z"/><path class="cls-6" d="M100.73,45a89.47,89.47,0,0,1-2.2,21c-1.16,5.11-4.59,8.72-9.47,11.66l-.89.54a17.75,17.75,0,0,1-17.23.44h0c-5.37-2.86-9.17-6.68-10.4-12.13a130.12,130.12,0,0,1-2.64-20.9S55.87,22.72,79,22.79,100.73,45,100.73,45Z"/><polyline class="cls-7" points="77.58 56.98 77.61 60.3 79.88 60.27"/><path class="cls-4" d="M61.76,45.22,74,44s-1.13-3.15-6.06-2.59S61.76,45.22,61.76,45.22Z"/><path class="cls-4" d="M95.34,44.87l-12.22-1s1.06-3.18,6-2.72S95.34,44.87,95.34,44.87Z"/><path class="cls-8" d="M71.33,52.55a1.87,1.87,0,1,1-1.89-1.85A1.87,1.87,0,0,1,71.33,52.55Z"/><path class="cls-8" d="M89.67,52.36a1.87,1.87,0,1,1-1.89-1.85A1.87,1.87,0,0,1,89.67,52.36Z"/><path class="cls-9" d="M71.94,65.06s5.22,2.78,13.57-.14"/><path class="cls-4" d="M100.68,39.79s-34,1.62-32.76-18.33C67.92,21.46,97.46,12.75,100.68,39.79Z"/><path class="cls-4" d="M57.34,40.25S69.23,35.13,69.1,22.88C69.1,22.88,56.87,24.42,57.34,40.25Z"/><g class="cls-10"><line class="cls-11" x1="19.96" y1="105.66" x2="138.97" y2="105.66"/><line class="cls-11" x1="19.96" y1="111.88" x2="138.97" y2="111.88"/><line class="cls-11" x1="19.96" y1="118.09" x2="138.97" y2="118.09"/><line class="cls-11" x1="19.96" y1="124.3" x2="138.97" y2="124.3"/><line class="cls-11" x1="19.96" y1="130.52" x2="138.97" y2="130.52"/><line class="cls-11" x1="19.96" y1="136.73" x2="138.97" y2="136.73"/><line class="cls-11" x1="19.96" y1="142.95" x2="138.97" y2="142.95"/><line class="cls-11" x1="19.96" y1="149.16" x2="138.97" y2="149.16"/></g></g></g></svg>