<svg xmlns="http://www.w3.org/2000/svg" xmlns:xlink="http://www.w3.org/1999/xlink" viewBox="0 0 150 150"><defs><style>.cls-1{fill:#72e5ed;}.cls-2{clip-path:url(#clip-path);}.cls-3{fill:#1e0b02;}.cls-4{fill:#e8b499;}.cls-5,.cls-8{fill:none;}.cls-5{stroke:#c47268;stroke-linecap:round;stroke-linejoin:round;stroke-width:0.69px;}.cls-6{fill:#fff;}.cls-7{fill:#1c2238;}.cls-8{stroke:#fff;stroke-miterlimit:10;stroke-width:1.94px;}</style><clipPath id="clip-path"><circle class="cls-1" cx="75" cy="75" r="75" transform="translate(-14.68 131.63) rotate(-77.27)"/></clipPath></defs><g id="OBJECTS"><circle class="cls-1" cx="75" cy="75" r="75" transform="translate(-14.68 131.63) rotate(-77.27)"/><g class="cls-2"><path class="cls-3" d="M60,11.16S70.57-3.09,89.24,6.42c20.47,10.43,9.41,32.91,9.41,32.91L54.67,31Z"/><path class="cls-3" d="M51.24,39.44S39.74,16.85,60,11.16l3.65,12.12Z"/><path class="cls-4" d="M61,49.86a8.17,8.17,0,1,1-8.4-7.93A8.17,8.17,0,0,1,61,49.86Z"/><path class="cls-5" d="M48.19,49s3.25-1.59,6.34,4.06"/><path class="cls-4" d="M90.84,50.09A8.17,8.17,0,1,0,99,41.92,8.17,8.17,0,0,0,90.84,50.09Z"/><path class="cls-5" d="M103.61,48.82s-3.29-1.5-6.23,4.24"/><path class="cls-4" d="M86.4,68.93s-4.61,3.25-8.8,4-8.28-1.63-8.34-1.66l-4.9-2.82-2,26.9.55.44A19.46,19.46,0,0,0,87.48,96l1-.84Z"/><path class="cls-3" d="M62.35,65.67s4.58,15,15.12,14.82c8.66-.14,10.06-14.82,10.06-14.82Z"/><path class="cls-4" d="M98,35.87a102.1,102.1,0,0,1-2.53,22.88c-1.26,5.54-6.14,9.43-11.25,12.58l-.93.57c-5.41,3.32-9.88,3.43-15.41.28h0C62.3,69,57.12,64.8,55.89,58.87a149.15,149.15,0,0,1-2.53-22.78s-3.14-25,20.93-24.65S98,35.87,98,35.87Z"/><path class="cls-3" d="M67.24,43.2a2,2,0,1,1-1.95-2A1.94,1.94,0,0,1,67.24,43.2Z"/><path class="cls-3" d="M86.35,43.2a1.95,1.95,0,1,1-1.95-2A1.94,1.94,0,0,1,86.35,43.2Z"/><polyline class="cls-5" points="73.08 48.29 73.08 51.41 75.61 51.41"/><path d="M58,35l12.73-1.14s-1.14-3.3-6.28-2.77S58,35,58,35Z"/><path d="M90.84,35,78.11,33.82s1.14-3.3,6.28-2.77S90.84,35,90.84,35Z"/><path class="cls-6" d="M68.72,55.86H81.28s-.59,3.85-6.47,3.85S68.72,55.86,68.72,55.86Z"/><path class="cls-3" d="M54.18,47.92s.94-30.61.55-31.48C54.73,16.44,43.88,26.47,54.18,47.92Z"/><path class="cls-3" d="M97.08,47.7,95.45,14.47S105.88,24.84,97.08,47.7Z"/><path class="cls-3" d="M64.25,13.73s-7.47,2-7.21,9.35-4.71,14.54-4.71,14.54l-2.26-7.33S48.32,16.64,64.25,13.73Z"/><path class="cls-3" d="M62.37,14.33S68,11.16,73.51,18.14c4.74,6,17.23,12.1,24.63,6.26,0,0-4.71-16.87-23.1-16.53S62.37,14.33,62.37,14.33Z"/><path class="cls-7" d="M138.46,152.11H11.91c2.31-9.58,4.69-18.1,7-24.73,3.47-9.79,8.47-15.52,12.61-18.78A21.92,21.92,0,0,1,39,104.5l8.78-3.67,55.55,0,8.15,3.62s13,3.29,20,22.88C133.78,134,136.15,142.53,138.46,152.11Z"/><path class="cls-4" d="M76.18,89.12l27.11,11.76s-27.86,25.17-55.56-.06Z"/><path class="cls-8" d="M47.73,100.82s9.65,11.42,27.71,11.42,27.85-11.36,27.85-11.36"/></g></g></svg>