<?xml version="1.0" encoding="utf-8"?>
<!-- Svg Vector Icons : http://www.onlinewebfonts.com/icon -->
<!DOCTYPE svg PUBLIC "-//W3C//DTD SVG 1.1//EN" "http://www.w3.org/Graphics/SVG/1.1/DTD/svg11.dtd">
<svg   version="1.1" xmlns="http://www.w3.org/2000/svg" xmlns:xlink="http://www.w3.org/1999/xlink" x="0px" y="0px" viewBox="0 0 1000 1000" enable-background="new 0 0 1000 1000" xml:space="preserve">
<g ><path fill="#0080ff"  d="M497.5,423.1c-21.7,0-43.2,8.7-58.6,23.6c-15.3,14.9-24.3,35.9-24.3,57c0,21.1,8.9,42,24.3,56.9c15.3,14.9,36.9,23.6,58.6,23.6c21.7,0,43.2-8.7,58.6-23.6c15.3-14.9,24.3-35.9,24.3-56.9c0-21.1-8.9-42-24.3-57C540.8,431.8,519.2,423.1,497.5,423.1z"/><path  fill="#0080ff" d="M10,508.1c0,0,495.7,589.9,980,0C451.7-118.2,10,508.1,10,508.1z M502.3,664.7c-91.5,0-165.7-72.1-165.7-161.1c0-88.9,74.2-161,165.7-161c91.4,0,165.6,72.1,165.6,161.1C667.9,592.6,593.8,664.7,502.3,664.7z"/></g>
</svg>
