<svg xmlns="http://www.w3.org/2000/svg" viewBox="0 0 85.04 85.04"><defs><style>.cls-1{fill:#93ebff;}</style></defs><g id="Calque_4" data-name="Calque 4"><path class="cls-1" d="M50.15,22.3a8.07,8.07,0,0,0-5.36-4.56,8.74,8.74,0,0,0-4.54,0,8.07,8.07,0,0,0-5.36,4.56A43.46,43.46,0,0,1,50.15,22.3Z"/><path class="cls-1" d="M76.63,17.13a42.52,42.52,0,1,0-8.72,59.5A42.53,42.53,0,0,0,76.63,17.13Zm-46,6a11.9,11.9,0,0,1,8.65-9.08,12.64,12.64,0,0,1,6.52,0,11.9,11.9,0,0,1,8.65,9.08,15.29,15.29,0,0,1,10.37,9.2,55.25,55.25,0,0,1-10.14,2.58v-.83a1.92,1.92,0,0,0-3.83,0v1.34a79.59,79.59,0,0,1-16.62,0V34.11a1.92,1.92,0,0,0-3.83,0v.83a55.25,55.25,0,0,1-10.14-2.58A15.29,15.29,0,0,1,30.61,23.16ZM65.46,48.91a16.57,16.57,0,0,1-12.8,11.68,53.22,53.22,0,0,1-20.28,0,16.55,16.55,0,0,1-12.8-11.68,26.34,26.34,0,0,1-.4-12.9,59.78,59.78,0,0,0,11.2,2.76V43a1.92,1.92,0,0,0,3.83,0v-3.7a82.42,82.42,0,0,0,16.62,0V43a1.92,1.92,0,0,0,3.83,0V38.77A59.78,59.78,0,0,0,65.86,36,26.34,26.34,0,0,1,65.46,48.91Z"/></g></svg>