<svg xmlns="http://www.w3.org/2000/svg" viewBox="0 0 85.04 85.04"><defs><style>.cls-1{fill:#fa8b96;}</style></defs><g id="Calque_4" data-name="Calque 4"><path class="cls-1" d="M76.63,18a42.52,42.52,0,1,0-8.72,59.49A42.52,42.52,0,0,0,76.63,18ZM42.52,27.77a7.42,7.42,0,1,1-7.42,7.42A7.42,7.42,0,0,1,42.52,27.77ZM30.65,17.38a2.23,2.23,0,1,1,0,4.46A9.64,9.64,0,0,0,21,31.48a2.23,2.23,0,0,1-4.45,0A14.09,14.09,0,0,1,30.65,17.38Zm0,51.93A14.09,14.09,0,0,1,16.56,55.22a2.23,2.23,0,1,1,4.45,0,9.65,9.65,0,0,0,9.64,9.64,2.23,2.23,0,1,1,0,4.45Zm5.59-11.87a4.85,4.85,0,0,1-4.85-4.85V52a7.27,7.27,0,0,1,6.13-7.18,31.65,31.65,0,0,1,10,0A7.27,7.27,0,0,1,53.65,52v.55a4.86,4.86,0,0,1-4.86,4.85ZM54.39,69.31a2.23,2.23,0,1,1,0-4.45A9.65,9.65,0,0,0,64,55.22a2.23,2.23,0,1,1,4.45,0A14.09,14.09,0,0,1,54.39,69.31ZM66.26,33.7A2.22,2.22,0,0,1,64,31.48a9.64,9.64,0,0,0-9.64-9.64,2.23,2.23,0,0,1,0-4.46,14.09,14.09,0,0,1,14.09,14.1A2.21,2.21,0,0,1,66.26,33.7Z"/></g></svg>