<svg xmlns="http://www.w3.org/2000/svg" viewBox="0 0 85.04 85.04"><defs><style>.cls-1{fill:#fa8b96;}</style></defs><g id="Calque_4" data-name="Calque 4"><path class="cls-1" d="M38.56,33.18,35,36.78l-1.29-1.29a1.45,1.45,0,1,0-2,2.06l2.31,2.32a1.49,1.49,0,0,0,1,.42,1.45,1.45,0,0,0,1-.42l4.64-4.64a1.45,1.45,0,1,0-2.06-2Z"/><path class="cls-1" d="M38.56,44.77,35,48.38l-1.29-1.29a1.45,1.45,0,0,0-2,2l2.31,2.32a1.45,1.45,0,0,0,2.06,0l4.64-4.64a1.45,1.45,0,1,0-2.06-2Z"/><path class="cls-1" d="M53.5,47.82H45.38a1.46,1.46,0,0,0,0,2.91H53.5a1.46,1.46,0,0,0,0-2.91Z"/><path class="cls-1" d="M53.5,36.23H45.38a1.45,1.45,0,0,0,0,2.9H53.5a1.45,1.45,0,0,0,0-2.9Z"/><path class="cls-1" d="M76.73,17.26A42,42,0,1,0,68.13,76,42,42,0,0,0,76.73,17.26ZM64,49.51A18.48,18.48,0,0,1,50.26,63.28a31.51,31.51,0,0,1-14.39,0A18.48,18.48,0,0,1,22.1,49.51a31.51,31.51,0,0,1,0-14.39A18.49,18.49,0,0,1,35.87,21.35a31.51,31.51,0,0,1,14.39,0A18.49,18.49,0,0,1,64,35.12,31.51,31.51,0,0,1,64,49.51Z"/></g></svg>