<svg xmlns="http://www.w3.org/2000/svg" viewBox="0 0 85.04 85.04"><defs><style>.cls-1{fill:#f39404;}</style></defs><g id="Calque_4" data-name="Calque 4"><path class="cls-1" d="M76.25,17.41a42.05,42.05,0,1,0-8.62,58.84A42,42,0,0,0,76.25,17.41ZM49.75,63.58a31.81,31.81,0,0,1-14.46,0A18.57,18.57,0,0,1,23,54l2.28-2.28a10.82,10.82,0,0,1,15.29,0L51.83,63A20.77,20.77,0,0,1,49.75,63.58ZM61.2,55.42a18.46,18.46,0,0,1-6.66,6.3l-5.87-5.87,1.08-1.08a7.76,7.76,0,0,1,11.44.52l.06.07Zm2.38-5.67a18.64,18.64,0,0,1-1,3,10.56,10.56,0,0,0-14.84.09L46.7,53.88l-4.12-4.12a13.61,13.61,0,0,0-19.24,0l-1.46,1.47c-.16-.48-.3-1-.42-1.48a31.81,31.81,0,0,1,0-14.46A18.57,18.57,0,0,1,35.29,21.46a31.81,31.81,0,0,1,14.46,0A18.57,18.57,0,0,1,63.58,35.29,31.81,31.81,0,0,1,63.58,49.75Z"/><path class="cls-1" d="M49.51,29.48a6.06,6.06,0,1,0,6.05,6.05A6.05,6.05,0,0,0,49.51,29.48Zm0,9.31a3.26,3.26,0,1,1,3.26-3.26A3.26,3.26,0,0,1,49.51,38.79Z"/></g></svg>