<svg xmlns="http://www.w3.org/2000/svg" viewBox="0 0 85.04 85.04"><defs><style>.cls-1{fill:#93ebff;}.cls-2{fill:#fc663d;}.cls-3{fill:#f7cc94;}.cls-4{fill:#f4b392;}.cls-5{fill:#3f1400;}.cls-6{fill:none;stroke:#3f1400;stroke-linecap:round;stroke-linejoin:round;stroke-width:0.5px;}</style></defs><g id="Calque_1" data-name="Calque 1"><circle class="cls-1" cx="42.2" cy="42.52" r="39.09"/></g><g id="Calque_4" data-name="Calque 4"><g id="hair"><path class="cls-2" d="M66.37,63.72H14.85c0-8.88,4-16.1,12.88-16.1H53.49c8.88,0,12.88,7.19,12.88,16.06Z"/><path class="cls-3" d="M45.43,34.8V49.25a4.82,4.82,0,0,1-9.64,0h0V34.8Z"/><path class="cls-4" d="M50.16,30a13.32,13.32,0,0,1-4.73,9.52V42.7a7.57,7.57,0,0,1-9.64,0V39.49A13.3,13.3,0,0,1,31.07,30c.53-6.32,4.62-11.24,9.54-11.24S49.63,23.65,50.16,30Z"/><path class="cls-3" d="M50.25,28.38A14.12,14.12,0,0,1,50.16,30a13.32,13.32,0,0,1-4.73,9.52,7.55,7.55,0,0,1-9.64,0A13.3,13.3,0,0,1,31.07,30,10.6,10.6,0,0,1,31,28.38c0-7.11,4.3-12.88,9.63-12.88S50.25,21.27,50.25,28.38Z"/><path class="cls-3" d="M53.49,28.38a3.22,3.22,0,0,1-3.22,3.2c-1.76,0,0-1.44,0-3.2s-1.76-3.22,0-3.22A3.22,3.22,0,0,1,53.49,28.38Z"/><path class="cls-3" d="M27.73,28.38A3.22,3.22,0,0,0,31,31.58c1.77,0,0-1.44,0-3.2s1.77-3.22,0-3.22A3.22,3.22,0,0,0,27.73,28.38Z"/><circle class="cls-5" cx="36.76" cy="25.48" r="0.64"/><circle class="cls-5" cx="44.46" cy="25.48" r="0.64"/><path class="cls-6" d="M34.51,23.55S36.7,21,39,22.26"/><path class="cls-6" d="M46.72,23.55s-2.19-2.58-4.5-1.29"/><path class="cls-6" d="M40,26.12s-2.58,6.44-1.29,6.44H40"/><path class="cls-6" d="M40,35.13s3.86,0,5.15-1.29"/><path class="cls-5" d="M31.83,25.83s1.29-6.28,3.77-6.28,2.5,1.29,6.26,1.29,8.78,5,8.78,5S55,18.94,49.36,13.32c-2.51-2.5-8.79-3.76-12.55,0s-3.76,2.58-5,2.58S28,15.9,28,18.47,31.83,25.83,31.83,25.83Z"/></g></g></svg>