<svg xmlns="http://www.w3.org/2000/svg" xmlns:xlink="http://www.w3.org/1999/xlink" viewBox="0 0 85.04 85.04"><defs><style>.cls-1{fill:url(#Dégradé_sans_nom_2);}</style><linearGradient id="Dégradé_sans_nom_2" x1="71.99" y1="71.99" x2="13.05" y2="13.05" gradientUnits="userSpaceOnUse"><stop offset="0" stop-color="#fff" stop-opacity="0"/><stop offset="0" stop-color="#dfd3ec" stop-opacity="0.3"/><stop offset="0" stop-color="#cab6df" stop-opacity="0.49"/><stop offset="0.12" stop-color="#c9b5df" stop-opacity="0.67"/><stop offset="0.25" stop-color="#c9b5de" stop-opacity="0.85"/><stop offset="0.36" stop-color="#c8b4de" stop-opacity="0.96"/><stop offset="0.43" stop-color="#c8b4de"/><stop offset="0.65" stop-color="#a7a1ea"/><stop offset="0.86" stop-color="#8d92f3"/><stop offset="0.99" stop-color="#838cf6"/><stop offset="0.99" stop-color="#808af7"/><stop offset="1" stop-color="#7a87f9"/></linearGradient></defs><g id="Calque_4" data-name="Calque 4"><path class="cls-1" d="M76,17.64A41.67,41.67,0,1,0,67.4,76,41.68,41.68,0,0,0,76,17.64ZM44.75,20A16.56,16.56,0,0,1,65.39,40.63a1.78,1.78,0,1,1-3.43-1A13,13,0,0,0,45.73,23.42a1.79,1.79,0,1,1-1-3.44Zm9.37,11.28a4.46,4.46,0,0,0-3.92-1.35,1.79,1.79,0,0,1-.7-3.51A8.3,8.3,0,0,1,59,35.88a1.78,1.78,0,0,1-3.5-.7A4.46,4.46,0,0,0,54.12,31.26ZM65.67,57.7l-.2.64a10.61,10.61,0,0,1-8.42,7.08,20.14,20.14,0,0,1-7,0l-.27,0A37.59,37.59,0,0,1,20,35.57,2.56,2.56,0,0,1,20,35.3a20,20,0,0,1,0-7A10.58,10.58,0,0,1,27,19.91l.63-.2a8.61,8.61,0,0,1,2.57-.39c4.17,0,7.26,3.67,7.26,7.83v9.32c0,4.16-3.09,7.83-7.26,7.83a8.61,8.61,0,0,1-2.57-.39l-.63-.2c-.22-.06-.43-.14-.64-.22A34,34,0,0,0,41.89,59c-.08-.21-.16-.42-.23-.64l-.2-.64a8.55,8.55,0,0,1-.39-2.56c0-4.17,3.68-7.27,7.83-7.27h9.33c4.16,0,7.83,3.1,7.83,7.27A8.55,8.55,0,0,1,65.67,57.7Z"/></g></svg>