<svg xmlns="http://www.w3.org/2000/svg" viewBox="0 0 85.04 85.04"><defs><style>.cls-1{fill:#2394bc;}.cls-2{fill:#ededed;}.cls-3{fill:#4681a0;}.cls-4{fill:#f6f6f6;}.cls-5{fill:#a3e0f5;}.cls-6{fill:#3db39e;}.cls-7{fill:#4bc2ad;}.cls-8{fill:#efc75e;}.cls-9{fill:#1f85a9;}.cls-10{fill:#d5d5d5;}.cls-11{fill:#3f7490;}</style></defs><g id="Calque_4" data-name="Calque 4"><path class="cls-1" d="M42.52,2.7A39.82,39.82,0,1,1,2.7,42.52,39.82,39.82,0,0,1,42.52,2.7Z"/><path class="cls-2" d="M15.12,27.5,55.84,16.59a2.39,2.39,0,0,1,2.94,1.68l8,30a2.39,2.39,0,0,1-1.71,2.93L24.39,62.12a2.4,2.4,0,0,1-2.94-1.69l-8-30A2.39,2.39,0,0,1,15.12,27.5Z"/><path class="cls-3" d="M18.45,29.89l35.67-9.56a1.85,1.85,0,0,1,2.26,1.3l6.67,24.91a1.84,1.84,0,0,1-1.3,2.26L26.08,58.36a1.85,1.85,0,0,1-2.26-1.3L17.14,32.14A1.84,1.84,0,0,1,18.45,29.89Z"/><path class="cls-4" d="M22.64,27.4H64.8a2.4,2.4,0,0,1,2.41,2.39V60.85a2.39,2.39,0,0,1-2.41,2.38H22.64a2.39,2.39,0,0,1-2.41-2.38V29.79A2.4,2.4,0,0,1,22.64,27.4Z"/><path class="cls-5" d="M25.24,30.57H62.17A1.84,1.84,0,0,1,64,32.41V58.2A1.84,1.84,0,0,1,62.17,60H25.24A1.84,1.84,0,0,1,23.4,58.2V32.41A1.84,1.84,0,0,1,25.24,30.57Z"/><path class="cls-6" d="M26.59,51.27a21.93,21.93,0,0,0-3.19.25V58.2A1.84,1.84,0,0,0,25.24,60H39.17a4.83,4.83,0,0,0,.17-1.2C39.34,54.66,33.63,51.27,26.59,51.27Z"/><path class="cls-7" d="M64,58.2V48.28a32.43,32.43,0,0,0-8-1C44.53,47.3,35.23,53,35.23,60H62.17A1.84,1.84,0,0,0,64,58.2Z"/><path class="cls-8" d="M23.4,32.41v9.22a9.39,9.39,0,0,0,1.19.08,9.94,9.94,0,0,0,10-9.95,11.7,11.7,0,0,0-.07-1.19H25.24A1.84,1.84,0,0,0,23.4,32.41Z"/><path class="cls-9" d="M64.8,63.23H22.64a2.39,2.39,0,0,1-2.41-2.38V29.79a2.48,2.48,0,0,1,.11-.68,2.39,2.39,0,0,0-1.7,2.27V62.44a2.4,2.4,0,0,0,2.41,2.39H63.2a2.4,2.4,0,0,0,2.3-1.71A2.33,2.33,0,0,1,64.8,63.23Z"/><path class="cls-10" d="M20.23,55.89V29.79a2.48,2.48,0,0,1,.11-.68,2.39,2.39,0,0,0-1.7,2.27V50Z"/><path class="cls-11" d="M19.43,29.62a2.38,2.38,0,0,0-.79,1.76v6.33l1.59,5.95V29.79a2.34,2.34,0,0,1,0-.39Z"/></g></svg>