<svg xmlns="http://www.w3.org/2000/svg" xmlns:xlink="http://www.w3.org/1999/xlink" viewBox="0 0 85.04 85.04"><defs><style>.cls-1{fill:none;}.cls-2{fill:#f4f0d3;}.cls-3{clip-path:url(#clip-path);}.cls-4{fill:#efc75e;}.cls-5{fill:#ccc7a5;}.cls-6{fill:#dad5b1;}.cls-7{fill:#e4dfbd;}.cls-8{fill:#e2574c;}.cls-9{fill:#fff;}</style><clipPath id="clip-path"><path class="cls-1" d="M42.52,2.7A39.82,39.82,0,1,1,2.7,42.52,39.82,39.82,0,0,1,42.52,2.7Z"/></clipPath></defs><g id="Calque_4" data-name="Calque 4"><path class="cls-2" d="M42.52,2.7A39.82,39.82,0,1,1,2.7,42.52,39.82,39.82,0,0,1,42.52,2.7Z"/><g class="cls-3"><path class="cls-4" d="M81.93,70.64,37.47,26.18,73.05-9.39l-4.51-4.5L33,21.68,5.24-6,.72-1.53l54,54-38,38L21.28,95l38-38L77.41,75.16Z"/><path class="cls-5" d="M52.88,29.67V19.43l21.5,20.83V50.48Z"/><path class="cls-6" d="M103.84,21l0-10.36L74.38,40.13V50.51Z"/><path class="cls-7" d="M52.8,19.44l25.63-26,21.51,22L74.38,40.89Z"/><path class="cls-8" d="M33,19.42A15.09,15.09,0,0,1,48.09,34.48a19.38,19.38,0,0,1-1.38,6.79C43,49.82,33,59.3,33,59.25S23,49.86,19.24,41.32c-1.12-2-1.4-6.51-1.4-6.84A15.09,15.09,0,0,1,33,19.42Z"/><path class="cls-9" d="M33,26.59a8,8,0,1,0,8,8A8,8,0,0,0,33,26.59Zm0,12.74a4.78,4.78,0,1,1,4.78-4.77A4.78,4.78,0,0,1,33,39.33Z"/></g></g></svg>