<svg xmlns="http://www.w3.org/2000/svg" viewBox="0 0 85.04 85.04"><defs><style>.cls-1{fill:#0080ff;}.cls-2{fill:none;stroke:#0080ff;stroke-miterlimit:10;stroke-width:0.91px;}</style></defs><g id="Calque_4" data-name="Calque 4"><path class="cls-1" d="M84.37,25.64h0a3.43,3.43,0,0,0-3.43-3.44H71.66V12.92a3.43,3.43,0,0,0-3.44-3.43h0a3.43,3.43,0,0,0-3.43,3.43V22.2H55.51a3.44,3.44,0,0,0-3.44,3.44h0a3.44,3.44,0,0,0,3.44,3.43h9.28v9.28a3.44,3.44,0,0,0,3.43,3.44h0a3.44,3.44,0,0,0,3.44-3.44V29.07h9.28A3.43,3.43,0,0,0,84.37,25.64Z"/><path class="cls-2" d="M71.3,65.54A12.11,12.11,0,0,1,59.19,77.65H12.77a12.07,12.07,0,0,1-12-10.56,9.92,9.92,0,0,1-.12-1.55V19.48A12.1,12.1,0,0,1,12.77,7.39H44.16"/><path class="cls-1" d="M72.52,59.87v5.71c0,6.69-6.64,12.07-13.33,12.07H12.77a12.07,12.07,0,0,1-12-10.56L16.61,50.25l14,15.82,23.3-32.28Z"/><path class="cls-1" d="M24.76,25.64a8.15,8.15,0,1,1-8.15-8.15A8.15,8.15,0,0,1,24.76,25.64Z"/></g></svg>