<?xml version="1.0" encoding="iso-8859-1"?>
<!-- Generator: Adobe Illustrator 19.0.0, SVG Export Plug-In . SVG Version: 6.00 Build 0)  -->
<svg version="1.1" id="Layer_1" xmlns="http://www.w3.org/2000/svg" xmlns:xlink="http://www.w3.org/1999/xlink" x="0px" y="0px"
	 viewBox="0 0 512 512" style="enable-background:new 0 0 512 512;" xml:space="preserve">
<circle style="fill:#88C5CC;" cx="256" cy="256" r="256"/>
<path style="fill:#80B9BF;" d="M416,160H96v196l52.68,132.416C181.328,503.516,217.664,512,256,512
	c106.976,0,198.584-65.64,236.856-158.824L416,160z"/>
<rect x="96" y="160" style="fill:#F5F5F5;" width="320" height="196"/>
<rect x="104" y="168" style="fill:#E6E6E6;" width="304" height="180"/>
<g>
	<rect x="254" y="182" style="fill:#CCCCCC;" width="4" height="152"/>
	<path style="fill:#CCCCCC;" d="M168,296h-40c-2.212,0-4-1.792-4-4s1.788-4,4-4h40c2.212,0,4,1.792,4,4S170.212,296,168,296z"/>
	<path style="fill:#CCCCCC;" d="M208,312h-80c-2.212,0-4-1.792-4-4s1.788-4,4-4h80c2.212,0,4,1.792,4,4S210.212,312,208,312z"/>
</g>
<path style="fill:#FFFFFF;" d="M384,232c0-2.208,1.788-4,4-4v-4c-2.212,0-4-1.792-4-4s1.788-4,4-4v-4c-2.212,0-4-1.792-4-4
	s1.788-4,4-4v-4c-2.212,0-4-1.792-4-4s1.788-4,4-4v-4h-6c0,2.212-1.788,4-4,4c-2.208,0-4-1.788-4-4h-4c0,2.212-1.788,4-4,4
	c-2.208,0-4-1.788-4-4h-4c0,2.212-1.788,4-4,4c-2.208,0-4-1.788-4-4h-6v4c2.212,0,4,1.792,4,4s-1.788,4-4,4v4c2.212,0,4,1.792,4,4
	s-1.788,4-4,4v4c2.212,0,4,1.792,4,4s-1.788,4-4,4v4c2.212,0,4,1.792,4,4s-1.788,4-4,4v4h6c0-2.212,1.792-4,4-4c2.212,0,4,1.788,4,4
	h4c0-2.212,1.792-4,4-4c2.212,0,4,1.788,4,4h4c0-2.212,1.792-4,4-4c2.212,0,4,1.788,4,4h6v-4C385.788,236,384,234.208,384,232z"/>
<rect x="352" y="196" style="fill:#88C5CC;" width="28" height="36"/>
<g>
</g>
<g>
</g>
<g>
</g>
<g>
</g>
<g>
</g>
<g>
</g>
<g>
</g>
<g>
</g>
<g>
</g>
<g>
</g>
<g>
</g>
<g>
</g>
<g>
</g>
<g>
</g>
<g>
</g>
</svg>
