<?xml version="1.0" encoding="iso-8859-1"?>
<!-- Generator: Adobe Illustrator 19.0.0, SVG Export Plug-In . SVG Version: 6.00 Build 0)  -->
<svg version="1.1" id="Layer_1" xmlns="http://www.w3.org/2000/svg" xmlns:xlink="http://www.w3.org/1999/xlink" x="0px" y="0px"
	 viewBox="0 0 496.2 496.2" style="enable-background:new 0 0 496.2 496.2;" xml:space="preserve">
<path style="fill:#48A1AF;" d="M248.1,0C111.1,0,0,111.1,0,248.1s111.1,248.1,248.1,248.1s248.1-111.1,248.1-248.1S385.1,0,248.1,0z
	"/>
<rect x="189.6" y="324.9" style="fill:#1D2D33;" width="116.8" height="31.5"/>
<path style="fill:#334D5C;" d="M418.5,382.8c-8.5-27.3-81.2-49.3-170.8-49.3s-161.5,22-170,49.3c-2.6,8.5-5.5,22.2-8.3,37.4
	c45.1,46.9,108.5,76,178.7,76s133.6-29.2,178.7-76C424.1,405,421.2,391.2,418.5,382.8z"/>
<path style="fill:#F2F8F9;" d="M306.3,337.4c-16.9-2.5-36-3.9-58.6-3.9c-1.4,0-2.9,0-4.3,0c-0.4,0-0.8,0-1.1,0c-1.1,0-2.1,0-3.2,0
	c-0.2,0-0.5,0-0.7,0c-19.7,0.3-37.9,1.8-52.9,4.1c0,0,2.9,53.1,4,100.5c0,0,0,30.4,0,51.1c18.8,4.5,38.4,7,58.5,7s39.6-2.4,58.3-6.9
	C306.4,446.7,306.3,337.4,306.3,337.4z"/>
<g>
	<path style="fill:#E2A379;" d="M287,282.1h-77.8c12.1,36.6,1,53.3,1,53.3l26.9,6.1h22l26.9-6.1C286,335.4,274.9,318.7,287,282.1z"
		/>
	<path style="fill:#E2A379;" d="M247.9,317l-37.7,18.4c0,0,16.8,28.1,37.6,28.1s38.2-28.1,38.2-28.1L247.9,317z"/>
</g>
<path style="fill:#A0490E;" d="M128.8,406.8c-4.2,0-7.7,3.4-7.7,7.7v36.3c0,4.2,3.4,7.7,7.7,7.7c4.2,0,7.7-3.4,7.7-7.7v-36.3
	C136.4,410.2,133,406.8,128.8,406.8z"/>
<path style="fill:#AF5417;" d="M121.1,414.4v36.3c0,4.2,3.4,7.7,7.7,7.7v-51.7C124.5,406.8,121.1,410.2,121.1,414.4z"/>
<path style="fill:#CEB70D;" d="M148.9,399.1c-4.2,0-7.7,3.4-7.7,7.7v36.3c0,4.2,3.4,7.7,7.7,7.7c4.2,0,7.7-3.4,7.7-7.7v-36.3
	C156.6,402.5,153.2,399.1,148.9,399.1z"/>
<path style="fill:#E5C615;" d="M141.3,406.8v36.3c0,4.2,3.4,7.7,7.7,7.7v-51.7C144.7,399.1,141.3,402.5,141.3,406.8z"/>
<g>
	<path style="fill:#263A44;" d="M113.6,419.3v37.3c15.7,10.1,32.6,18.6,50.4,25v-62.3H113.6z"/>
	<path style="fill:#263A44;" d="M332.2,419.3v62.3c17.8-6.4,34.7-14.9,50.4-25v-37.3H332.2z"/>
	<polygon style="fill:#263A44;" points="138.1,345.1 160.6,362.1 177.1,362.1 166.1,373.1 189.6,469.1 189.6,324.9 	"/>
	<polygon style="fill:#263A44;" points="358,345.1 306.5,324.9 306.5,469.1 330,373.1 319,362.1 335.5,362.1 	"/>
</g>
<path style="fill:#E2A379;" d="M247.8,322.9c-28.2,0-37.4,12.4-37.4,12.4s1.4,43.2,37.8,43.2s37.8-43.1,37.8-43.1
	S275.9,322.9,247.8,322.9z"/>
<path style="fill:#F4B382;" d="M248.1,61.6c-48.7,0-88.3,21.2-88.3,113.6c0,31.3,6.2,55.8,15.5,74.7c20.4,41.6,55.7,56.1,72.8,56.1
	s52.4-14.5,72.8-56.1c9.3-18.9,15.5-43.4,15.5-74.7C336.4,82.8,296.8,61.6,248.1,61.6z"/>
<g>
	<path style="fill:#191919;" d="M335.8,144.6h-3.5c0.3,4.8,0.4,9.8,0.4,15c0,30-5.9,65.4-14.8,83.5c-9.7,19.8-22.9,28-35.8,34.9
		c2.4-5,3.7-10.2,3.7-15.4c0-15.9-12.7-24-37.8-24s-37.8,8.1-37.8,24c0,5.2,1.4,10.5,3.8,15.5c-12.9-6.9-26.1-15.2-35.8-35
		c-8.9-18.1-14.8-53.5-14.8-83.5c0-5.3,0.1-10.3,0.4-15h-3.5c-0.4,5.7-0.6,11.7-0.6,18.1c0,31.3,6.2,68.2,15.5,87.1
		c20.4,41.6,55.7,56.1,72.8,56.1s52.4-14.5,72.8-56.1c9.3-18.9,15.5-55.8,15.5-87.1C336.4,156.3,336.2,150.3,335.8,144.6z
		 M248.6,292.9L248.6,292.9h-1l0,0c-14.7-0.3-31.2-14.5-31.2-30.3c0-4.5,0-18,31.8-18s31.8,13.5,31.8,18
		C279.9,278.4,263.3,292.6,248.6,292.9z"/>
	<path style="fill:#191919;" d="M253.1,278.2c-0.3-0.8-0.8-1.6-1.5-2.5c-0.7-0.8-1.6-1.6-3-2.5h-1c-1.4,0.8-2.3,1.6-3,2.5
		c-0.7,0.8-1.2,1.6-1.5,2.5c-0.3,0.8-0.3,1.6,0,2.5c0.3,0.8,0.8,1.6,1,2.5c0.4,1.6,0.9,3.3,1.5,4.9s1.2,3.3,2,4.9c0.2,0,0.3,0,0.5,0
		c0.2,0,0.3,0,0.5,0c0.8-1.6,1.4-3.3,2-4.9s1.1-3.3,1.5-4.9c0.2-0.8,0.6-1.6,1-2.5C253.4,279.8,253.4,279,253.1,278.2z"/>
	<path style="fill:#191919;" d="M247.6,292.9L247.6,292.9h0.5C247.9,292.9,247.8,292.9,247.6,292.9z"/>
	<path style="fill:#191919;" d="M248.1,292.9h0.5l0,0C248.4,292.9,248.3,292.9,248.1,292.9z"/>
</g>
<g>
	<path style="fill:#F4B382;" d="M161.4,178c-8.4,1.4-14.9,5.1-10.1,32.9s10.7,29.1,19.1,27.7L161.4,178z"/>
	<path style="fill:#F4B382;" d="M334.9,178l-9,60.6c8.4,1.4,14.3,0.1,19.1-27.7C349.7,183.1,343.3,179.5,334.9,178z"/>
</g>
<path style="fill:#FFFFFF;" d="M311.5,337.4L311.5,337.4L311.5,337.4L311.5,337.4z"/>
<path style="fill:#E5AA17;" d="M324.1,76.5c-13.5-20-50.5-37.3-75.8-37.3s-62.5,17.3-76,37.3c-12.6,18.6-15.9,71.4-11.2,71.4h174.2
	C338.4,147.9,336.7,95.1,324.1,76.5z"/>
<path style="fill:#EFC76C;" d="M159.2,141.5l0.9,21c0,0,37.9,3.9,88,3.9s87.9-3.9,87.9-3.9l0.2-21H159.2z"/>
<path style="fill:#E5AA17;" d="M248.1,35.8c-17,0-30.7,3.4-30.7,10.5V69c0,7.1,13.7,86.9,30.7,86.9c16.9,0,30.7-79.8,30.7-86.9V46.3
	C278.8,39.3,265,35.8,248.1,35.8z"/>
<g>
	<path style="fill:#C18D17;" d="M217.5,46.3L217.5,46.3c-0.1-0.1-0.2-0.1-0.2,0l0,0c-0.8,1.9-1.1,3.8-1.4,5.7
		c-0.2,0.9-0.2,1.9-0.3,2.8c-0.1,0.9-0.1,1.9-0.1,2.8s0,1.9,0.1,2.8s0.1,1.9,0.3,2.8c0.3,1.9,0.7,3.8,1.4,5.7l0,0l0.1,0.1
		c0.1,0,0.1,0,0.1-0.1l0.1-11.3L217.5,46.3z"/>
	<path style="fill:#C18D17;" d="M280.6,54.8c-0.1-0.9-0.1-1.9-0.3-2.8c-0.3-1.9-0.7-3.8-1.4-5.7l0,0l-0.1-0.1c-0.1,0-0.1,0-0.1,0.1
		l-0.1,11.3l0.1,11.3c0,0,0,0.1,0.1,0.1s0.1,0,0.1-0.1l0,0c0.8-1.9,1.1-3.8,1.4-5.7c0.2-0.9,0.2-1.9,0.3-2.8
		c0.1-0.9,0.1-1.9,0.1-2.8S280.7,55.8,280.6,54.8z"/>
</g>
<path style="fill:#F4B21E;" d="M266.3,42.8c0-7.1-8.1-12.8-18.2-12.8s-18.2,5.8-18.2,12.8l-12.1,96.7c0,7.1,20.3,12.8,30.3,12.8
	s30.3-5.8,30.3-12.8L266.3,42.8z"/>
<path style="fill:#E5AA17;" d="M332.5,129.2c-12.6-0.5-48.6,7.5-84.4,7.5c-35.3,0-70.4-8-82.6-7.5c-12.1,0-16.1,23.6-16.1,23.6
	s42.5,4.3,98.8,4.3s98.6-4.3,98.6-4.3S343,129.2,332.5,129.2z"/>
<path style="fill:#C18D17;" d="M313.8,133.4c-7.4,0.5-14.7,0.9-22.1,1.2c-14.7,0.6-29.5,1.1-44.2,1c-14.7,0.1-29.5-0.4-44.2-1
	c-7.4-0.3-14.7-0.7-22.1-1.2c-7.4-0.4-14.7-1-22.1-1.5c7.3,1,14.6,1.8,22,2.6c7.3,0.7,14.7,1.3,22.1,1.8c14.7,1,29.5,1.4,44.3,1.5
	c14.8-0.1,29.5-0.5,44.3-1.5c7.4-0.5,14.7-1.1,22.1-1.8c7.3-0.8,14.7-1.5,22-2.6C328.5,132.4,321.2,133,313.8,133.4z"/>
<g>
</g>
<g>
</g>
<g>
</g>
<g>
</g>
<g>
</g>
<g>
</g>
<g>
</g>
<g>
</g>
<g>
</g>
<g>
</g>
<g>
</g>
<g>
</g>
<g>
</g>
<g>
</g>
<g>
</g>
</svg>
