<svg xmlns="http://www.w3.org/2000/svg" xmlns:xlink="http://www.w3.org/1999/xlink" width="403.88" height="316.81" viewBox="0 0 403.88 316.81"><defs><linearGradient id="Namnlös_övertoning_8" x1="16.36" y1="191.47" x2="118.24" y2="293.35" gradientUnits="userSpaceOnUse"><stop offset="0" stop-color="#fff"/><stop offset="0.34" stop-color="#646e85"/></linearGradient><linearGradient id="Namnlös_övertoning_127" x1="303.05" y1="168.01" x2="303.05" y2="117.74" gradientUnits="userSpaceOnUse"><stop offset="0.04" stop-color="#646e85" stop-opacity="0.4"/><stop offset="0.27" stop-color="#646e85" stop-opacity="0.37"/><stop offset="0.5" stop-color="#646e85" stop-opacity="0.28"/><stop offset="0.73" stop-color="#656d85" stop-opacity="0.13"/><stop offset="0.77" stop-color="#656d85" stop-opacity="0.1"/></linearGradient><linearGradient id="Namnlös_övertoning_127-2" x1="310.93" y1="221.13" x2="310.93" y2="179.6" xlink:href="#Namnlös_övertoning_127"/><linearGradient id="Namnlös_övertoning_127-3" x1="270.16" y1="176.91" x2="403.88" y2="176.91" xlink:href="#Namnlös_övertoning_127"/></defs><g id="Lager_2" data-name="Lager 2"><g id="Lager_1-2" data-name="Lager 1"><g opacity="0.04"><path d="M235.34,72.71V32.27H18.27V152.15c0,7.85,7,14.26,15.49,14.26H70.12" fill="none" stroke="#323745" stroke-miterlimit="10" stroke-width="4.16"/><path d="M126.82,32.27H235.34V16.36A14.32,14.32,0,0,0,221.08,2.08H32.55A14.33,14.33,0,0,0,18.27,16.36V32.27H126.82" fill="#323745" stroke="#323745" stroke-miterlimit="10" stroke-width="4.16"/><circle cx="45.78" cy="17.16" r="2.67" fill="#fff"/><circle cx="56.92" cy="17.16" r="2.67" fill="#fff"/><path d="M83.57,12.83H192.45a4.24,4.24,0,0,1,4.25,4.23h0a4.24,4.24,0,0,1-4.25,4.24H83.57a4.24,4.24,0,0,1-4.24-4.24h0A4.23,4.23,0,0,1,83.57,12.83Z" fill="#fff"/><rect x="43.11" y="50.67" width="90.99" height="7.35" rx="3.67" fill="#4b5364"/><rect x="43.11" y="69.04" width="54.01" height="7.35" rx="3.62" fill="#4b5364"/><path d="M209,63.54l-.3.32a9,9,0,0,1-6.12,2.79,5.63,5.63,0,0,1-5.79-5.45v-.36A5.56,5.56,0,0,1,202.11,55h.38a9.24,9.24,0,0,1,5.7,2.26l.33.27,3.12-3.21L211.3,54a14.53,14.53,0,0,0-9.15-3.29,10.28,10.28,0,0,0-8.59,4.3h-5.78l-.33,2.83h4.73a9.65,9.65,0,0,0-.32,1.6h-7.1l-.34,2.85h7.44a9.85,9.85,0,0,0,.32,1.6H181.49l-.34,2.83h12.37a10.46,10.46,0,0,0,8.76,4.3,14.17,14.17,0,0,0,9.61-3.87l.34-.31Z" fill="#fff"/><polygon points="183.95 59.4 181.86 59.4 181.52 62.25 183.61 62.25 183.95 59.4" fill="#fff"/></g><path d="M128.26,281.82H27.46a6.14,6.14,0,0,1-5.55-4.37L3.2,207.37A3.22,3.22,0,0,1,5,203.2l.08,0A3.11,3.11,0,0,1,6.37,203H107.13a6.29,6.29,0,0,1,5.56,4.37l18.78,70.1a3.28,3.28,0,0,1-1.93,4.2A3.49,3.49,0,0,1,128.26,281.82Z" stroke="#646e85" stroke-linecap="round" stroke-linejoin="round" stroke-width="5.95" fill="url(#Namnlös_övertoning_8)"/><path d="M126.81,281.82h61.25c3.09,0,5.59-.89,5.59-2V274H130.82" fill="none" stroke="#646e85" stroke-linecap="round" stroke-linejoin="round" stroke-width="5.95"/><circle cx="199.43" cy="102.58" r="46.93" fill="none" stroke="#646e85" stroke-linecap="round" stroke-linejoin="round" stroke-width="5.95"/><path d="M135.75,200.31c15.35-16.2,38.18-26.47,63.68-26.47,46.2,0,83.66,33.73,83.66,75.35" fill="none" stroke="#646e85" stroke-linecap="round" stroke-linejoin="round" stroke-width="5.95"/><circle cx="303.05" cy="142.87" r="22.16" fill="none" stroke-linecap="round" stroke-linejoin="round" stroke-width="5.95" stroke="url(#Namnlös_övertoning_127)"/><path d="M279.3,189.72a42.27,42.27,0,0,1,23.75-7.14c21.82,0,39.5,15.93,39.5,35.57" fill="none" stroke-linecap="round" stroke-linejoin="round" stroke-width="5.95" stroke="url(#Namnlös_övertoning_127-2)"/><path d="M220.49,111.37a22.17,22.17,0,0,1-41.68,2.34" fill="none" stroke="#646e85" stroke-linecap="round" stroke-linejoin="round" stroke-width="5.95"/><circle cx="185.6" cy="88.2" r="3.96" fill="#646e85"/><circle cx="211.54" cy="88.2" r="3.96" fill="#646e85"/><path d="M205.18,228.06l2.54-2.22,6.34,5.55L228,219.18l2.54,2.22-16.49,14.43Z" fill="#d55ba0"/><path d="M217.39,200.31c-2,2.94-7.61,8.85-21.51,8.55l.09,23.89c.06.44,1.71,11.55,21.62,22.22,19.84-10.82,21.4-21.94,21.46-22.41L239,208.7C225.1,209.1,219.36,203.23,217.39,200.31Z" fill="none" stroke="#646e85" stroke-linecap="round" stroke-linejoin="round" stroke-width="5.95"/><ellipse cx="64.85" cy="242.39" rx="23.17" ry="25.3" transform="translate(-171.96 159.45) rotate(-55.72)" fill="none" stroke="#fff" stroke-miterlimit="10" stroke-width="1.99"/><path d="M56.76,241.3l16,0a2.51,2.51,0,0,1,2.48,2.21l.67,7.77a2,2,0,0,1-2.09,2.23l-16,0a2.51,2.51,0,0,1-2.48-2.22l-.67-7.77A2,2,0,0,1,56.76,241.3Z" fill="none" stroke="#fff" stroke-miterlimit="10" stroke-width="1.99"/><path d="M59.05,241.29l-.39-4.44a5.09,5.09,0,0,1,5.23-5.56,6.24,6.24,0,0,1,6.19,5.53l.39,4.44" fill="none" stroke="#fff" stroke-miterlimit="10" stroke-width="1.99"/><path d="M295.53,311.14C392.43,259,398.84,204.35,398.88,204V89.51C329.05,91.63,302.78,60,295.51,48.33c-3.2,5.05-10.05,13.91-22.6,22.18l-2.75-4.18c17.24-11.35,23-24,23.08-24.16L295.52,37l2.29,5.17c.05.11,5.26,11.53,20.48,22.38,14.11,10,39.94,21.65,83,19.87l2.6-.11v120c-.22,2.35-6.47,58.13-107.17,111.91l-1.17.63-1.18-.63" fill="url(#Namnlös_övertoning_127-3)"/></g></g></svg>