<svg xmlns="http://www.w3.org/2000/svg" xmlns:xlink="http://www.w3.org/1999/xlink" viewBox="0 0 72.54 84.06"><defs><style>.cls-1{isolation:isolate;}.cls-2{fill:none;stroke:#7883b7;stroke-miterlimit:10;stroke-width:0.21px;}.cls-3{fill:url(#linear-gradient);}.cls-4{fill:#3467ff;}.cls-5{fill:#0095ff;}.cls-6{fill:url(#linear-gradient-2);}.cls-7,.cls-8{mix-blend-mode:multiply;opacity:0.5;}.cls-7{fill:url(#radial-gradient);}.cls-8{fill:url(#linear-gradient-3);}</style><linearGradient id="linear-gradient" x1="-0.31" y1="53.52" x2="67.54" y2="53.52" gradientTransform="translate(91.55 -1.98) rotate(90)" gradientUnits="userSpaceOnUse"><stop offset="0" stop-color="#00baec"/><stop offset="0.06" stop-color="#08b1e5"/><stop offset="0.35" stop-color="#2a87c4"/><stop offset="0.62" stop-color="#4368ad"/><stop offset="0.84" stop-color="#53569e"/><stop offset="1" stop-color="#584f99"/></linearGradient><linearGradient id="linear-gradient-2" x1="100.65" y1="55.59" x2="19.95" y2="55.59" xlink:href="#linear-gradient"/><radialGradient id="radial-gradient" cx="597.53" cy="159.27" r="47.59" gradientTransform="translate(-559.9 -96.42) rotate(0.5)" gradientUnits="userSpaceOnUse"><stop offset="0.49" stop-color="#fff"/><stop offset="0.55" stop-color="#fafafa"/><stop offset="0.61" stop-color="#ececec"/><stop offset="0.68" stop-color="#d5d5d5"/><stop offset="0.75" stop-color="#b5b5b5"/><stop offset="0.82" stop-color="#8c8c8c"/><stop offset="0.89" stop-color="#595959"/><stop offset="0.97" stop-color="#1e1e1e"/><stop offset="1"/></radialGradient><linearGradient id="linear-gradient-3" x1="574.33" y1="157.98" x2="624.81" y2="157.98" gradientTransform="translate(-559.9 -96.42) rotate(0.5)" xlink:href="#radial-gradient"/></defs><g class="cls-1"><g id="Calque_1" data-name="Calque 1"><path class="cls-2" d="M14.82,68.1a28.1,28.1,0,0,1-4.06-6.47A41.88,41.88,0,0,0,14.82,68.1Z" transform="translate(-6.25 -0.64)"/><path class="cls-3" d="M31.81,50.06a28.15,28.15,0,0,0,.51,5.61A20.59,20.59,0,0,1,43,22.77a28.07,28.07,0,0,1,5.35,1.89A28.12,28.12,0,0,0,31.81,50.06Z" transform="translate(-6.25 -0.64)"/><path class="cls-4" d="M78.33,72.05a42,42,0,0,1-63.51-4,28.1,28.1,0,0,0,48.81-11L78.06,71.77Z" transform="translate(-6.25 -0.64)"/><path class="cls-5" d="M78.79,13.76l-10,9.85-5.29,5.2-4.55,4.47A28.12,28.12,0,0,0,10.76,61.63a42,42,0,0,1,68-47.87Z" transform="translate(-6.25 -0.64)"/><path class="cls-6" d="M63.63,57.1a28.11,28.11,0,0,1-48.81,11,41.88,41.88,0,0,1-4.06-6.47A28.14,28.14,0,0,1,43,22.77a20.58,20.58,0,1,0,20.26,34Z" transform="translate(-6.25 -0.64)"/><path class="cls-7" d="M43,22.77a28.12,28.12,0,0,0-32.66,38c4-6.82,10.19-15.46,17.41-19.85a19.06,19.06,0,0,1,6.74-2.64A28.23,28.23,0,0,1,48.38,24.66,28.07,28.07,0,0,0,43,22.77Z" transform="translate(-6.25 -0.64)"/><path class="cls-8" d="M36.16,78.2A28.06,28.06,0,0,0,63.63,57.1l-.34-.35a20.59,20.59,0,0,1-31-1.08l-.3-.38c-6.22,3.35-13.21,7.18-19,10.33.55.85,1.14,1.68,1.75,2.48A28,28,0,0,0,36.16,78.2Z" transform="translate(-6.25 -0.64)"/></g></g></svg>